<svg width="42" height="53" viewBox="0 0 42 53" fill="none" xmlns="http://www.w3.org/2000/svg">
<path fill-rule="evenodd" clip-rule="evenodd" d="M20 50C20 50 40 30.8873 40 19.898C40 8.90862 31.0457 0 20 0C8.9543 0 0 8.90862 0 19.898C0 30.8873 20 50 20 50Z" transform="translate(1 1)" fill="#E31E24"/>
<path d="M20 50C20 50 40 30.8873 40 19.898C40 8.90862 31.0457 0 20 0C8.9543 0 0 8.90862 0 19.898C0 30.8873 20 50 20 50Z" transform="translate(1 1)" stroke="#E31E24" stroke-width="2"/>
<path fill-rule="evenodd" clip-rule="evenodd" d="M6.13867 0C5.14844 4.54541 8.16797 6.59766 10.2969 8.04395L10.4746 8.16455C12.5547 9.58643 15.8828 13.4219 10.4336 16.1709C7.7207 17.8008 5.96094 19.5264 5.26367 20.0562L4.69727 19.9341C4.69727 19.9341 10.8535 14.9165 7.98047 11.6333C2.2168 5.03125 6.13867 0 6.13867 0ZM2.84961 15.7646C2.60547 15.8887 2.37695 16.0049 2.17383 16.1162C0.529297 17.0176 -1.90234 19.5215 2.47461 21.2651C5.28906 22.4199 5.19727 22.2612 5.20312 22.1392C5.20312 22.1392 1.53125 20.1514 4.08008 18.1494C9.31055 14.0469 6.46094 10.9404 6.46094 10.9404C7.21875 13.5454 4.63672 14.8579 2.84961 15.7646ZM10.1641 22.2974C11.627 19.8022 13.0645 16.6641 17 16.542C17 16.542 11.541 13.2134 5.4082 22.4829C4.30859 24.1357 2.39844 24.1045 0.574219 23.5747L0.550781 23.8687C6.27344 26.5996 9.33398 23.7056 10.1641 22.2974Z" transform="translate(14 8)" fill="white"/>
</svg>
